{"asset":{"version":"2.0","generator":"VECTARY"},"scene":0,"extensionsUsed":["KHR_texture_transform","KHR_lights_punctual"],"extensionsRequired":["KHR_lights_punctual"],"nodes":[{"translation":[0.005199999809265137,0,0],"scale":[0.001,0.001,0.00075],"rotation":[-0.7071067811865475,0,0,0.7071067811865476],"name":"Buffer Layer","mesh":0},{"translation":[0.009376096037215561,0.17519644763433484,0.3219591898255596],"scale":[1,1,1],"rotation":[-0.21480959129766408,0.06950852780455963,0.015328745382297781,0.9740587423836297],"name":"Camera","camera":0}],"materials":[{"pbrMetallicRoughness":{"baseColorFactor":[1,1,1,1],"baseColorTexture":{"index":0,"extensions":{"KHR_texture_transform":{"offset":[0,0],"scale":[1,1]}},"texCoord":0},"metallicFactor":0,"roughnessFactor":1},"name":"Light Blue to White","emissiveFactor":[0.06,0.06,0.06],"alphaMode":"OPAQUE","doubleSided":false}],"textures":[{"sampler":0,"source":0}],"images":[{"uri":"374d6e58-3941-4703-b39e-69e78fc0d2a8.jpg","mimeType":"image/jpeg"}],"samplers":[{"wrapS":10497,"wrapT":10497}],"meshes":[{"primitives":[{"mode":4,"attributes":{"POSITION":1,"NORMAL":2,"TEXCOORD_0":3},"material":0,"indices":0}]}],"accessors":[{"bufferView":0,"byteOffset":0,"componentType":5125,"count":72,"type":"SCALAR"},{"bufferView":1,"byteOffset":0,"componentType":5126,"count":72,"max":[19.554141998291016,2.104670524597168,51.17020034790039],"min":[-19.554141998291016,-2.104670524597168,0],"type":"VEC3"},{"bufferView":2,"byteOffset":0,"componentType":5126,"count":72,"type":"VEC3"},{"bufferView":3,"byteOffset":0,"componentType":5126,"count":72,"type":"VEC2"}],"bufferViews":[{"buffer":0,"byteOffset":0,"byteLength":288,"target":34963},{"buffer":0,"byteOffset":288,"byteLength":864,"target":34962},{"buffer":0,"byteOffset":1152,"byteLength":864,"target":34962},{"buffer":0,"byteOffset":2016,"byteLength":576,"target":34962}],"cameras":[{"name":"Camera","type":"perspective","extras":{"targetDistance":0.4242620732916199},"perspective":{"aspectRatio":1.5673289183222958,"yfov":0.6108652381980153,"zfar":36.08556734181574,"znear":0.002650887174554773}}],"scenes":[{"nodes":[0,1],"name":"JustLogo"}],"buffers":[{"byteLength":2592,"uri":"JustLogo.bin"}]}