{"asset":{"version":"2.0","generator":"VECTARY"},"scene":0,"extensionsUsed":["KHR_texture_transform","KHR_lights_punctual"],"extensionsRequired":["KHR_lights_punctual"],"nodes":[{"translation":[0.004,-0.034,-7.105427357601002e-18],"scale":[0.001,0.001,0.001],"rotation":[-0.7071067811865475,0,0,0.7071067811865476],"name":"Object","mesh":0},{"translation":[0.009376096037215561,0.17519644763433484,0.3219591898255596],"scale":[1,1,1],"rotation":[-0.21480959129766408,0.06950852780455963,0.015328745382297781,0.9740587423836297],"name":"Camera","camera":0}],"materials":[{"pbrMetallicRoughness":{"baseColorFactor":[0,0.45907989242416014,0.7969165429079781,0.35],"baseColorTexture":{"index":0,"extensions":{"KHR_texture_transform":{"offset":[0,0],"scale":[1,1]}},"texCoord":0},"metallicFactor":0,"roughnessFactor":0},"name":"Light Blue To Blue","emissiveFactor":[0,0,0],"alphaMode":"BLEND","doubleSided":false}],"textures":[{"sampler":0,"source":0}],"images":[{"uri":"deeac274-9e65-488a-9670-b3ba3753fe2b.jpg","mimeType":"image/jpeg"}],"samplers":[{"wrapS":10497,"wrapT":10497}],"meshes":[{"primitives":[{"mode":4,"attributes":{"POSITION":1,"NORMAL":2,"TEXCOORD_0":3},"material":0,"indices":0}]}],"accessors":[{"bufferView":0,"byteOffset":0,"componentType":5125,"count":1518,"type":"SCALAR"},{"bufferView":1,"byteOffset":0,"componentType":5126,"count":1518,"max":[53.94602584838867,53.94602584838867,107.90666198730469],"min":[-53.94602584838867,-53.94602584838867,0],"type":"VEC3"},{"bufferView":2,"byteOffset":0,"componentType":5126,"count":1518,"type":"VEC3"},{"bufferView":3,"byteOffset":0,"componentType":5126,"count":1518,"type":"VEC2"}],"bufferViews":[{"buffer":0,"byteOffset":0,"byteLength":6072,"target":34963},{"buffer":0,"byteOffset":6072,"byteLength":18216,"target":34962},{"buffer":0,"byteOffset":24288,"byteLength":18216,"target":34962},{"buffer":0,"byteOffset":42504,"byteLength":12144,"target":34962}],"cameras":[{"name":"Camera","type":"perspective","extras":{"targetDistance":0.4242620732916199},"perspective":{"aspectRatio":1.6569428238039674,"yfov":0.6108652381980153,"zfar":36.08556734181574,"znear":0.002650887174554773}}],"scenes":[{"nodes":[0,1],"name":"JustSphere"}],"buffers":[{"byteLength":54648,"uri":"JustSphere.bin"}]}