{"asset":{"version":"2.0","generator":"VECTARY"},"nodes":[{"translation":[-0.1418353271484375,0.08700000000000001,1.4210854715202004e-17],"scale":[0.00035,0.00035,0.00035],"rotation":[-0.7071067811865475,0,0,0.7071067811865476],"name":"F","mesh":0},{"translation":[-0.1250701904296875,0.08700000000000001,1.4210854715202004e-17],"scale":[0.00035,0.00035,0.00035],"rotation":[-0.7071067811865475,0,0,0.7071067811865476],"name":"L","mesh":1},{"translation":[-0.1079974365234375,0.08700000000000001,1.4210854715202004e-17],"scale":[0.00035,0.00035,0.00035],"rotation":[-0.7071067811865475,0,0,0.7071067811865476],"name":"A","mesh":2},{"translation":[-0.0871717529296875,0.08700000000000001,1.4210854715202004e-17],"scale":[0.00035,0.00035,0.00035],"rotation":[-0.7071067811865475,0,0,0.7071067811865476],"name":"T","mesh":3},{"translation":[-0.0693453369140625,0.08700000000000001,1.4210854715202004e-17],"scale":[0.00035,0.00035,0.00035],"rotation":[-0.7071067811865475,0,0,0.7071067811865476],"name":"I","mesh":4},{"translation":[-0.0597322998046875,0.08700000000000001,1.4210854715202004e-17],"scale":[0.00035,0.00035,0.00035],"rotation":[-0.7071067811865475,0,0,0.7071067811865476],"name":"R","mesh":5},{"translation":[-0.039598754882812504,0.08700000000000001,1.4210854715202004e-17],"scale":[0.00035,0.00035,0.00035],"rotation":[-0.7071067811865475,0,0,0.7071067811865476],"name":"O","mesh":6},{"translation":[-0.0148048095703125,0.08700000000000001,1.4210854715202004e-17],"scale":[0.00035,0.00035,0.00035],"rotation":[-0.7071067811865475,0,0,0.7071067811865476],"name":"N","mesh":7},{"translation":[0.0180487060546875,0.08700000000000001,1.4210854715202004e-17],"scale":[0.00035,0.00035,0.00035],"rotation":[-0.7071067811865475,0,0,0.7071067811865476],"name":"S","mesh":8},{"translation":[0.0353675537109375,0.08700000000000001,1.4210854715202004e-17],"scale":[0.00035,0.00035,0.00035],"rotation":[-0.7071067811865475,0,0,0.7071067811865476],"name":"C","mesh":9},{"translation":[0.0553319091796875,0.08700000000000001,1.4210854715202004e-17],"scale":[0.00035,0.00035,0.00035],"rotation":[-0.7071067811865475,0,0,0.7071067811865476],"name":"H","mesh":10},{"translation":[0.0789876708984375,0.08700000000000001,1.4210854715202004e-17],"scale":[0.00035,0.00035,0.00035],"rotation":[-0.7071067811865475,0,0,0.7071067811865476],"name":"O","mesh":11},{"translation":[0.1037816162109375,0.08700000000000001,1.4210854715202004e-17],"scale":[0.00035,0.00035,0.00035],"rotation":[-0.7071067811865475,0,0,0.7071067811865476],"name":"O","mesh":12},{"translation":[0.1285755615234375,0.08700000000000001,1.4210854715202004e-17],"scale":[0.00035,0.00035,0.00035],"rotation":[-0.7071067811865475,0,0,0.7071067811865476],"name":"L","mesh":13},{"translation":[-0.04253839074796663,0.16272640982690476,0.5027744223687087],"scale":[1,1,1],"rotation":[-0.17853794663151012,-0.08615760525503935,-0.015695881457222505,0.9800279118344548],"name":"Camera","camera":0}],"materials":[{"pbrMetallicRoughness":{"baseColorFactor":[0,0.45907989242416014,0.7969165429079781,1],"metallicFactor":0.52,"roughnessFactor":0.44},"name":"3D Text material","emissiveFactor":[0,0,0],"alphaMode":"OPAQUE","doubleSided":false}],"meshes":[{"primitives":[{"mode":4,"attributes":{"POSITION":1,"NORMAL":2,"TEXCOORD_0":3},"material":0,"indices":0}]},{"primitives":[{"mode":4,"attributes":{"POSITION":5,"NORMAL":6,"TEXCOORD_0":7},"material":0,"indices":4}]},{"primitives":[{"mode":4,"attributes":{"POSITION":9,"NORMAL":10,"TEXCOORD_0":11},"material":0,"indices":8}]},{"primitives":[{"mode":4,"attributes":{"POSITION":13,"NORMAL":14,"TEXCOORD_0":15},"material":0,"indices":12}]},{"primitives":[{"mode":4,"attributes":{"POSITION":17,"NORMAL":18,"TEXCOORD_0":19},"material":0,"indices":16}]},{"primitives":[{"mode":4,"attributes":{"POSITION":21,"NORMAL":22,"TEXCOORD_0":23},"material":0,"indices":20}]},{"primitives":[{"mode":4,"attributes":{"POSITION":25,"NORMAL":26,"TEXCOORD_0":27},"material":0,"indices":24}]},{"primitives":[{"mode":4,"attributes":{"POSITION":29,"NORMAL":30,"TEXCOORD_0":31},"material":0,"indices":28}]},{"primitives":[{"mode":4,"attributes":{"POSITION":33,"NORMAL":34,"TEXCOORD_0":35},"material":0,"indices":32}]},{"primitives":[{"mode":4,"attributes":{"POSITION":37,"NORMAL":38,"TEXCOORD_0":39},"material":0,"indices":36}]},{"primitives":[{"mode":4,"attributes":{"POSITION":41,"NORMAL":42,"TEXCOORD_0":43},"material":0,"indices":40}]},{"primitives":[{"mode":4,"attributes":{"POSITION":25,"NORMAL":26,"TEXCOORD_0":27},"material":0,"indices":24}]},{"primitives":[{"mode":4,"attributes":{"POSITION":25,"NORMAL":26,"TEXCOORD_0":27},"material":0,"indices":24}]},{"primitives":[{"mode":4,"attributes":{"POSITION":5,"NORMAL":6,"TEXCOORD_0":7},"material":0,"indices":4}]}],"accessors":[{"bufferView":0,"byteOffset":0,"componentType":5125,"count":108,"type":"SCALAR"},{"bufferView":1,"byteOffset":0,"componentType":5126,"count":108,"max":[49.70703125,4.37117578122744e-15,71.38671875],"min":[9.423828125,-25,0],"type":"VEC3"},{"bufferView":2,"byteOffset":0,"componentType":5126,"count":108,"type":"VEC3"},{"bufferView":3,"byteOffset":0,"componentType":5126,"count":108,"type":"VEC2"},{"bufferView":4,"byteOffset":0,"componentType":5125,"count":60,"type":"SCALAR"},{"bufferView":5,"byteOffset":0,"componentType":5126,"count":60,"max":[51.318359375,4.37117578122744e-15,71.38671875],"min":[9.423828125,-25,0],"type":"VEC3"},{"bufferView":6,"byteOffset":0,"componentType":5126,"count":60,"type":"VEC3"},{"bufferView":7,"byteOffset":0,"componentType":5126,"count":60,"type":"VEC2"},{"bufferView":8,"byteOffset":0,"componentType":5125,"count":312,"type":"SCALAR"},{"bufferView":9,"byteOffset":0,"componentType":5126,"count":312,"max":[66.11328125,4.389115092017339e-15,71.6796875],"min":[0,-25,0],"type":"VEC3"},{"bufferView":10,"byteOffset":0,"componentType":5126,"count":312,"type":"VEC3"},{"bufferView":11,"byteOffset":0,"componentType":5126,"count":312,"type":"VEC2"},{"bufferView":12,"byteOffset":0,"componentType":5125,"count":84,"type":"SCALAR"},{"bufferView":13,"byteOffset":0,"componentType":5126,"count":84,"max":[55.078125,4.37117578122744e-15,71.38671875],"min":[1.416015625,-25,0],"type":"VEC3"},{"bufferView":14,"byteOffset":0,"componentType":5126,"count":84,"type":"VEC3"},{"bufferView":15,"byteOffset":0,"componentType":5126,"count":84,"type":"VEC2"},{"bufferView":16,"byteOffset":0,"componentType":5125,"count":36,"type":"SCALAR"},{"bufferView":17,"byteOffset":0,"componentType":5126,"count":36,"max":[21.09375,4.37117578122744e-15,71.38671875],"min":[9.423828125,-25,0],"type":"VEC3"},{"bufferView":18,"byteOffset":0,"componentType":5126,"count":36,"type":"VEC3"},{"bufferView":19,"byteOffset":0,"componentType":5126,"count":36,"type":"VEC2"},{"bufferView":20,"byteOffset":0,"componentType":5125,"count":552,"type":"SCALAR"},{"bufferView":21,"byteOffset":0,"componentType":5126,"count":552,"max":[62.98828125,4.37117578122744e-15,71.38671875],"min":[9.423828125,-25,0],"type":"VEC3"},{"bufferView":22,"byteOffset":0,"componentType":5126,"count":552,"type":"VEC3"},{"bufferView":23,"byteOffset":0,"componentType":5126,"count":552,"type":"VEC2"},{"bufferView":24,"byteOffset":0,"componentType":5125,"count":960,"type":"SCALAR"},{"bufferView":25,"byteOffset":0,"componentType":5126,"count":960,"max":[72.802734375,4.439942574566754e-15,72.509765625],"min":[5.908203125,-25,-0.9765625],"type":"VEC3"},{"bufferView":26,"byteOffset":0,"componentType":5126,"count":960,"type":"VEC3"},{"bufferView":27,"byteOffset":0,"componentType":5126,"count":960,"type":"VEC2"},{"bufferView":28,"byteOffset":0,"componentType":5125,"count":324,"type":"SCALAR"},{"bufferView":29,"byteOffset":0,"componentType":5126,"count":324,"max":[68.896484375,4.37117578122744e-15,71.38671875],"min":[9.423828125,-25,0],"type":"VEC3"},{"bufferView":30,"byteOffset":0,"componentType":5126,"count":324,"type":"VEC3"},{"bufferView":31,"byteOffset":0,"componentType":5126,"count":324,"type":"VEC2"},{"bufferView":32,"byteOffset":0,"componentType":5125,"count":1392,"type":"SCALAR"},{"bufferView":33,"byteOffset":0,"componentType":5126,"count":1392,"max":[50.5859375,4.433962945475612e-15,72.412109375],"min":[4.8828125,-25,-0.9765625],"type":"VEC3"},{"bufferView":34,"byteOffset":0,"componentType":5126,"count":1392,"type":"VEC3"},{"bufferView":35,"byteOffset":0,"componentType":5126,"count":1392,"type":"VEC2"},{"bufferView":36,"byteOffset":0,"componentType":5125,"count":912,"type":"SCALAR"},{"bufferView":37,"byteOffset":0,"componentType":5126,"count":912,"max":[60.107421875,4.433962945475612e-15,72.412109375],"min":[5.908203125,-25,-0.9765625],"type":"VEC3"},{"bufferView":38,"byteOffset":0,"componentType":5126,"count":912,"type":"VEC3"},{"bufferView":39,"byteOffset":0,"componentType":5126,"count":912,"type":"VEC2"},{"bufferView":40,"byteOffset":0,"componentType":5125,"count":132,"type":"SCALAR"},{"bufferView":41,"byteOffset":0,"componentType":5126,"count":132,"max":[65.72265625,4.37117578122744e-15,71.38671875],"min":[9.423828125,-25,0],"type":"VEC3"},{"bufferView":42,"byteOffset":0,"componentType":5126,"count":132,"type":"VEC3"},{"bufferView":43,"byteOffset":0,"componentType":5126,"count":132,"type":"VEC2"}],"bufferViews":[{"buffer":0,"byteOffset":0,"byteLength":432,"target":34963},{"buffer":0,"byteOffset":432,"byteLength":1296,"target":34962},{"buffer":0,"byteOffset":1728,"byteLength":1296,"target":34962},{"buffer":0,"byteOffset":3024,"byteLength":864,"target":34962},{"buffer":0,"byteOffset":3888,"byteLength":240,"target":34963},{"buffer":0,"byteOffset":4128,"byteLength":720,"target":34962},{"buffer":0,"byteOffset":4848,"byteLength":720,"target":34962},{"buffer":0,"byteOffset":5568,"byteLength":480,"target":34962},{"buffer":0,"byteOffset":6048,"byteLength":1248,"target":34963},{"buffer":0,"byteOffset":7296,"byteLength":3744,"target":34962},{"buffer":0,"byteOffset":11040,"byteLength":3744,"target":34962},{"buffer":0,"byteOffset":14784,"byteLength":2496,"target":34962},{"buffer":0,"byteOffset":17280,"byteLength":336,"target":34963},{"buffer":0,"byteOffset":17616,"byteLength":1008,"target":34962},{"buffer":0,"byteOffset":18624,"byteLength":1008,"target":34962},{"buffer":0,"byteOffset":19632,"byteLength":672,"target":34962},{"buffer":0,"byteOffset":20304,"byteLength":144,"target":34963},{"buffer":0,"byteOffset":20448,"byteLength":432,"target":34962},{"buffer":0,"byteOffset":20880,"byteLength":432,"target":34962},{"buffer":0,"byteOffset":21312,"byteLength":288,"target":34962},{"buffer":0,"byteOffset":21600,"byteLength":2208,"target":34963},{"buffer":0,"byteOffset":23808,"byteLength":6624,"target":34962},{"buffer":0,"byteOffset":30432,"byteLength":6624,"target":34962},{"buffer":0,"byteOffset":37056,"byteLength":4416,"target":34962},{"buffer":0,"byteOffset":41472,"byteLength":3840,"target":34963},{"buffer":0,"byteOffset":45312,"byteLength":11520,"target":34962},{"buffer":0,"byteOffset":56832,"byteLength":11520,"target":34962},{"buffer":0,"byteOffset":68352,"byteLength":7680,"target":34962},{"buffer":0,"byteOffset":76032,"byteLength":1296,"target":34963},{"buffer":0,"byteOffset":77328,"byteLength":3888,"target":34962},{"buffer":0,"byteOffset":81216,"byteLength":3888,"target":34962},{"buffer":0,"byteOffset":85104,"byteLength":2592,"target":34962},{"buffer":0,"byteOffset":87696,"byteLength":5568,"target":34963},{"buffer":0,"byteOffset":93264,"byteLength":16704,"target":34962},{"buffer":0,"byteOffset":109968,"byteLength":16704,"target":34962},{"buffer":0,"byteOffset":126672,"byteLength":11136,"target":34962},{"buffer":0,"byteOffset":137808,"byteLength":3648,"target":34963},{"buffer":0,"byteOffset":141456,"byteLength":10944,"target":34962},{"buffer":0,"byteOffset":152400,"byteLength":10944,"target":34962},{"buffer":0,"byteOffset":163344,"byteLength":7296,"target":34962},{"buffer":0,"byteOffset":170640,"byteLength":528,"target":34963},{"buffer":0,"byteOffset":171168,"byteLength":1584,"target":34962},{"buffer":0,"byteOffset":172752,"byteLength":1584,"target":34962},{"buffer":0,"byteOffset":174336,"byteLength":1056,"target":34962}],"cameras":[{"name":"Camera","type":"perspective","extras":{"targetDistance":0.6979741194377995},"perspective":{"aspectRatio":1.4733542319749215,"yfov":0.6108652381980153,"zfar":46.4876653051669,"znear":0.0037184709128987078}}],"scene":0,"scenes":[{"nodes":[0,1,2,3,4,5,6,7,8,9,10,11,12,13,14],"name":"Textupdated"}],"extensionsUsed":["KHR_texture_transform"],"buffers":[{"byteLength":175392,"uri":"Textupdated.bin"}]}